<svg width="175" height="50" viewBox="0 0 175 50" fill="none" xmlns="http://www.w3.org/2000/svg">
<path d="M11.698 4.22H0.277V39H7.233V26.639H11.886C19.359 26.639 25.328 23.067 25.328 15.124C25.328 6.852 19.359 4.22 11.698 4.22ZM11.416 21.14H7.233V9.719H11.181C16.022 9.719 18.513 11.035 18.513 15.124C18.513 19.119 16.163 21.14 11.416 21.14ZM28.2416 1.494V39H35.1036V1.494H28.2416ZM46.7328 39.47C49.7408 39.47 52.4198 38.248 54.6758 36.321H54.8168L55.3338 39H60.9738V23.631C60.9738 15.876 57.5898 12.022 50.8688 12.022C46.7328 12.022 42.7848 13.385 39.9178 15.124L41.9858 20.059C44.3828 18.508 47.1558 17.568 49.5998 17.568C51.6208 17.568 52.8898 17.991 53.4538 18.79C53.9708 19.871 54.2058 20.999 54.0648 22.127C43.1608 22.456 38.6018 25.417 38.9308 31.856C38.9308 36.415 42.0328 39.47 46.7328 39.47ZM48.8478 34.206C46.8268 34.206 45.3228 32.89 45.2758 30.681C45.2288 28.801 46.3098 27.297 49.3178 26.874C50.8218 26.639 52.4198 26.498 54.0648 26.357V31.668C52.4198 33.313 50.8688 34.159 48.8478 34.206ZM68.6264 49.575H75.4414L78.6844 39.752L87.8024 12.68H81.1754L77.5564 24.9C76.9454 27.344 76.2874 29.882 75.6764 32.326H75.4414C74.6894 29.694 74.0314 27.297 73.2324 24.9L69.0494 12.68H62.0934L72.2924 39.141L68.6264 49.575ZM96.8837 39.658C103.746 39.658 107.365 35.945 107.365 31.339C107.365 26.404 103.511 24.759 100.033 23.396C97.2597 22.409 94.6747 21.61 94.6747 19.73C94.6747 18.226 95.7557 17.192 98.1527 17.192C100.174 17.192 101.96 18.132 103.84 19.448L106.942 15.265C104.733 13.62 101.913 12.022 97.9647 12.022C92.0897 12.022 88.1887 15.359 88.1887 20.106C88.1887 24.477 92.0427 26.545 95.3797 27.767C98.1527 28.895 100.879 29.741 100.879 31.715C100.879 33.36 99.7037 34.488 97.0717 34.488C94.6277 34.488 92.4187 33.454 90.0217 31.621L86.8727 35.945C89.5047 38.154 93.3117 39.658 96.8837 39.658ZM109.203 8.45H116.065V1.776H109.203V8.45ZM109.156 12.68V39H116.018V12.68H109.156ZM129.618 39.658C131.921 39.658 133.707 39.188 135.164 38.671L134.036 33.642C133.331 33.971 132.344 34.206 131.451 34.206C129.054 34.206 127.879 32.749 127.879 29.788V18.132H134.365V12.68H127.879V5.63H122.098L121.299 12.68L117.257 13.009V18.132H120.97V29.788C120.97 35.71 123.367 39.658 129.618 39.658ZM150.953 6.852L152.222 1.776C151.047 1.259 149.261 0.835998 147.24 0.835998C140.613 0.835998 138.075 5.066 138.075 10.565V12.727L134.55 13.009V18.132H138.075V39H144.984V18.132H149.919V12.68H144.984V10.424C144.984 7.416 146.112 6.288 148.18 6.288C149.073 6.288 150.06 6.523 150.953 6.852ZM154.998 49.575H161.813L165.056 39.752L174.174 12.68H167.547L163.928 24.9C163.317 27.344 162.659 29.882 162.048 32.326H161.813C161.061 29.694 160.403 27.297 159.604 24.9L155.421 12.68H148.465L158.664 39.141L154.998 49.575Z" fill="url(#paint0_linear_200_493)"/>
<defs>
<linearGradient id="paint0_linear_200_493" x1="7.96082" y1="0.500017" x2="173.045" y2="36.2809" gradientUnits="userSpaceOnUse">
<stop stop-color="#FF9191"/>
<stop offset="1" stop-color="#B9C900"/>
</linearGradient>
</defs>
</svg>
