<svg width="40" height="40" viewBox="0 0 40 40" fill="none" xmlns="http://www.w3.org/2000/svg">
<path fill-rule="evenodd" clip-rule="evenodd" d="M20 40C31.0457 40 40 31.0457 40 20C40 8.9543 31.0457 0 20 0C8.9543 0 0 8.9543 0 20C0 31.0457 8.9543 40 20 40ZM8 15C7.44772 15 7 15.4477 7 16V25C7 25.5523 7.44772 26 8 26H9C9.55228 26 10 25.5523 10 25V16C10 15.4477 9.55229 15 9 15H8ZM19 10C19 9.44771 19.4477 9 20 9H21C21.5523 9 22 9.44772 22 10V31C22 31.5523 21.5523 32 21 32H20C19.4477 32 19 31.5523 19 31V10ZM26 11C25.4477 11 25 11.4477 25 12V29C25 29.5523 25.4477 30 26 30H27C27.5523 30 28 29.5523 28 29V12C28 11.4477 27.5523 11 27 11H26ZM13 12C13 11.4477 13.4477 11 14 11H15C15.5523 11 16 11.4477 16 12V29C16 29.5523 15.5523 30 15 30H14C13.4477 30 13 29.5523 13 29V12ZM32 15C31.4477 15 31 15.4477 31 16V25C31 25.5523 31.4477 26 32 26H33C33.5523 26 34 25.5523 34 25V16C34 15.4477 33.5523 15 33 15H32Z" fill="url(#paint0_linear_225_549)"/>
<defs>
<linearGradient id="paint0_linear_225_549" x1="7" y1="4.5" x2="33.5" y2="33.5" gradientUnits="userSpaceOnUse">
<stop stop-color="#FF9090"/>
<stop offset="1" stop-color="#B9C900"/>
</linearGradient>
</defs>
</svg>
