<svg width="231" height="59" viewBox="0 0 231 59" fill="none" xmlns="http://www.w3.org/2000/svg">
<path fill-rule="evenodd" clip-rule="evenodd" d="M20 49.5C31.0457 49.5 40 40.5457 40 29.5C40 18.4543 31.0457 9.5 20 9.5C8.9543 9.5 0 18.4543 0 29.5C0 40.5457 8.9543 49.5 20 49.5ZM8 24.5C7.44772 24.5 7 24.9477 7 25.5V34.5C7 35.0523 7.44772 35.5 8 35.5H9C9.55228 35.5 10 35.0523 10 34.5V25.5C10 24.9477 9.55229 24.5 9 24.5H8ZM19 19.5C19 18.9477 19.4477 18.5 20 18.5H21C21.5523 18.5 22 18.9477 22 19.5V40.5C22 41.0523 21.5523 41.5 21 41.5H20C19.4477 41.5 19 41.0523 19 40.5V19.5ZM26 20.5C25.4477 20.5 25 20.9477 25 21.5V38.5C25 39.0523 25.4477 39.5 26 39.5H27C27.5523 39.5 28 39.0523 28 38.5V21.5C28 20.9477 27.5523 20.5 27 20.5H26ZM13 21.5C13 20.9477 13.4477 20.5 14 20.5H15C15.5523 20.5 16 20.9477 16 21.5V38.5C16 39.0523 15.5523 39.5 15 39.5H14C13.4477 39.5 13 39.0523 13 38.5V21.5ZM32 24.5C31.4477 24.5 31 24.9477 31 25.5V34.5C31 35.0523 31.4477 35.5 32 35.5H33C33.5523 35.5 34 35.0523 34 34.5V25.5C34 24.9477 33.5523 24.5 33 24.5H32Z" fill="url(#paint0_linear_225_574)"/>
<path d="M67.698 11.22H56.277V46H63.233V33.639H67.886C75.359 33.639 81.328 30.067 81.328 22.124C81.328 13.852 75.359 11.22 67.698 11.22ZM67.416 28.14H63.233V16.719H67.181C72.022 16.719 74.513 18.035 74.513 22.124C74.513 26.119 72.163 28.14 67.416 28.14ZM84.2416 8.494V46H91.1036V8.494H84.2416ZM102.733 46.47C105.741 46.47 108.42 45.248 110.676 43.321H110.817L111.334 46H116.974V30.631C116.974 22.876 113.59 19.022 106.869 19.022C102.733 19.022 98.7848 20.385 95.9178 22.124L97.9858 27.059C100.383 25.508 103.156 24.568 105.6 24.568C107.621 24.568 108.89 24.991 109.454 25.79C109.971 26.871 110.206 27.999 110.065 29.127C99.1608 29.456 94.6018 32.417 94.9308 38.856C94.9308 43.415 98.0328 46.47 102.733 46.47ZM104.848 41.206C102.827 41.206 101.323 39.89 101.276 37.681C101.229 35.801 102.31 34.297 105.318 33.874C106.822 33.639 108.42 33.498 110.065 33.357V38.668C108.42 40.313 106.869 41.159 104.848 41.206ZM124.626 56.575H131.441L134.684 46.752L143.802 19.68H137.175L133.556 31.9C132.945 34.344 132.287 36.882 131.676 39.326H131.441C130.689 36.694 130.031 34.297 129.232 31.9L125.049 19.68H118.093L128.292 46.141L124.626 56.575ZM152.884 46.658C159.746 46.658 163.365 42.945 163.365 38.339C163.365 33.404 159.511 31.759 156.033 30.396C153.26 29.409 150.675 28.61 150.675 26.73C150.675 25.226 151.756 24.192 154.153 24.192C156.174 24.192 157.96 25.132 159.84 26.448L162.942 22.265C160.733 20.62 157.913 19.022 153.965 19.022C148.09 19.022 144.189 22.359 144.189 27.106C144.189 31.477 148.043 33.545 151.38 34.767C154.153 35.895 156.879 36.741 156.879 38.715C156.879 40.36 155.704 41.488 153.072 41.488C150.628 41.488 148.419 40.454 146.022 38.621L142.873 42.945C145.505 45.154 149.312 46.658 152.884 46.658ZM165.203 15.45H172.065V8.776H165.203V15.45ZM165.156 19.68V46H172.018V19.68H165.156ZM185.618 46.658C187.921 46.658 189.707 46.188 191.164 45.671L190.036 40.642C189.331 40.971 188.344 41.206 187.451 41.206C185.054 41.206 183.879 39.749 183.879 36.788V25.132H190.365V19.68H183.879V12.63H178.098L177.299 19.68L173.257 20.009V25.132H176.97V36.788C176.97 42.71 179.367 46.658 185.618 46.658ZM206.953 13.852L208.222 8.776C207.047 8.259 205.261 7.836 203.24 7.836C196.613 7.836 194.075 12.066 194.075 17.565V19.727L190.55 20.009V25.132H194.075V46H200.984V25.132H205.919V19.68H200.984V17.424C200.984 14.416 202.112 13.288 204.18 13.288C205.073 13.288 206.06 13.523 206.953 13.852ZM210.998 56.575H217.813L221.056 46.752L230.174 19.68H223.547L219.928 31.9C219.317 34.344 218.659 36.882 218.048 39.326H217.813C217.061 36.694 216.403 34.297 215.604 31.9L211.421 19.68H204.465L214.664 46.141L210.998 56.575Z" fill="url(#paint1_linear_225_574)"/>
<defs>
<linearGradient id="paint0_linear_225_574" x1="7" y1="14" x2="33.5" y2="43" gradientUnits="userSpaceOnUse">
<stop stop-color="#FF9090"/>
<stop offset="1" stop-color="#B9C900"/>
</linearGradient>
<linearGradient id="paint1_linear_225_574" x1="83.325" y1="6.6375" x2="105" y2="78.6019" gradientUnits="userSpaceOnUse">
<stop stop-color="#FF9090"/>
<stop offset="1" stop-color="#B9C900"/>
</linearGradient>
</defs>
</svg>
