<svg width="252" height="59" viewBox="0 0 252 59" fill="none" xmlns="http://www.w3.org/2000/svg">
<path fill-rule="evenodd" clip-rule="evenodd" d="M20 49.5C31.0457 49.5 40 40.5457 40 29.5C40 18.4543 31.0457 9.5 20 9.5C8.9543 9.5 0 18.4543 0 29.5C0 40.5457 8.9543 49.5 20 49.5ZM8 24.5C7.44772 24.5 7 24.9477 7 25.5V34.5C7 35.0523 7.44772 35.5 8 35.5H9C9.55228 35.5 10 35.0523 10 34.5V25.5C10 24.9477 9.55229 24.5 9 24.5H8ZM19 19.5C19 18.9477 19.4477 18.5 20 18.5H21C21.5523 18.5 22 18.9477 22 19.5V40.5C22 41.0523 21.5523 41.5 21 41.5H20C19.4477 41.5 19 41.0523 19 40.5V19.5ZM26 20.5C25.4477 20.5 25 20.9477 25 21.5V38.5C25 39.0523 25.4477 39.5 26 39.5H27C27.5523 39.5 28 39.0523 28 38.5V21.5C28 20.9477 27.5523 20.5 27 20.5H26ZM13 21.5C13 20.9477 13.4477 20.5 14 20.5H15C15.5523 20.5 16 20.9477 16 21.5V38.5C16 39.0523 15.5523 39.5 15 39.5H14C13.4477 39.5 13 39.0523 13 38.5V21.5ZM32 24.5C31.4477 24.5 31 24.9477 31 25.5V34.5C31 35.0523 31.4477 35.5 32 35.5H33C33.5523 35.5 34 35.0523 34 34.5V25.5C34 24.9477 33.5523 24.5 33 24.5H32Z" fill="url(#paint0_linear_225_574)"/>
<path d="M67.698 11.22H56.277V46H63.233V33.639H67.886C75.359 33.639 81.328 30.067 81.328 22.124C81.328 13.852 75.359 11.22 67.698 11.22ZM67.416 28.14H63.233V16.719H67.181C72.022 16.719 74.513 18.035 74.513 22.124C74.513 26.119 72.163 28.14 67.416 28.14ZM84.2416 8.494V46H91.1036V8.494H84.2416ZM102.733 46.47C105.741 46.47 108.42 45.248 110.676 43.321H110.817L111.334 46H116.974V30.631C116.974 22.876 113.59 19.022 106.869 19.022C102.733 19.022 98.7848 20.385 95.9178 22.124L97.9858 27.059C100.383 25.508 103.156 24.568 105.6 24.568C107.621 24.568 108.89 24.991 109.454 25.79C109.971 26.871 110.206 27.999 110.065 29.127C99.1608 29.456 94.6018 32.417 94.9308 38.856C94.9308 43.415 98.0328 46.47 102.733 46.47ZM104.848 41.206C102.827 41.206 101.323 39.89 101.276 37.681C101.229 35.801 102.31 34.297 105.318 33.874C106.822 33.639 108.42 33.498 110.065 33.357V38.668C108.42 40.313 106.869 41.159 104.848 41.206ZM124.626 56.575H131.441L134.684 46.752L143.802 19.68H137.175L133.556 31.9C132.945 34.344 132.287 36.882 131.676 39.326H131.441C130.689 36.694 130.031 34.297 129.232 31.9L125.049 19.68H118.093L128.292 46.141L124.626 56.575ZM145.364 8.494V46H152.226V8.494H145.364ZM156.758 15.45H163.62V8.776H156.758V15.45ZM156.711 19.68V46H163.573V19.68H156.711ZM175.058 46.658C181.92 46.658 185.539 42.945 185.539 38.339C185.539 33.404 181.685 31.759 178.207 30.396C175.434 29.409 172.849 28.61 172.849 26.73C172.849 25.226 173.93 24.192 176.327 24.192C178.348 24.192 180.134 25.132 182.014 26.448L185.116 22.265C182.907 20.62 180.087 19.022 176.139 19.022C170.264 19.022 166.363 22.359 166.363 27.106C166.363 31.477 170.217 33.545 173.554 34.767C176.327 35.895 179.053 36.741 179.053 38.715C179.053 40.36 177.878 41.488 175.246 41.488C172.802 41.488 170.593 40.454 168.196 38.621L165.047 42.945C167.679 45.154 171.486 46.658 175.058 46.658ZM196.522 46.658C198.825 46.658 200.611 46.188 202.068 45.671L200.94 40.642C200.235 40.971 199.248 41.206 198.355 41.206C195.958 41.206 194.783 39.749 194.783 36.788V25.132H201.269V19.68H194.783V12.63H189.002L188.203 19.68L184.161 20.009V25.132H187.874V36.788C187.874 42.71 190.271 46.658 196.522 46.658ZM203.192 15.45H210.054V8.776H203.192V15.45ZM203.145 19.68V46H210.007V19.68H203.145ZM228.026 13.852L229.295 8.776C228.12 8.259 226.334 7.836 224.313 7.836C217.686 7.836 215.148 12.066 215.148 17.565V19.727L211.623 20.009V25.132H215.148V46H222.057V25.132H226.992V19.68H222.057V17.424C222.057 14.416 223.185 13.288 225.253 13.288C226.146 13.288 227.133 13.523 228.026 13.852ZM232.071 56.575H238.886L242.129 46.752L251.247 19.68H244.62L241.001 31.9C240.39 34.344 239.732 36.882 239.121 39.326H238.886C238.134 36.694 237.476 34.297 236.677 31.9L232.494 19.68H225.538L235.737 46.141L232.071 56.575Z" fill="url(#paint1_linear_225_574)"/>
<defs>
<linearGradient id="paint0_linear_225_574" x1="7" y1="14" x2="33.5" y2="43" gradientUnits="userSpaceOnUse">
<stop stop-color="#FF9090"/>
<stop offset="1" stop-color="#B9C900"/>
</linearGradient>
<linearGradient id="paint1_linear_225_574" x1="87" y1="6.6375" x2="106.726" y2="79.8129" gradientUnits="userSpaceOnUse">
<stop stop-color="#FF9090"/>
<stop offset="1" stop-color="#B9C900"/>
</linearGradient>
</defs>
</svg>
